<?xml version="1.0" encoding="UTF-8" standalone="no"?>
<svg
   xmlns:dc="http://purl.org/dc/elements/1.1/"
   xmlns:cc="http://creativecommons.org/ns#"
   xmlns:rdf="http://www.w3.org/1999/02/22-rdf-syntax-ns#"
   xmlns:svg="http://www.w3.org/2000/svg"
   xmlns="http://www.w3.org/2000/svg"
   id="svg22"
   version="1.1"
   style="overflow:visible"
   viewBox="-250 -250 500 500"
   height="2000px"
   width="2000px">
  <metadata
     id="metadata28">
    <rdf:RDF>
      <cc:Work
         rdf:about="">
        <dc:format>image/svg+xml</dc:format>
        <dc:type
           rdf:resource="http://purl.org/dc/dcmitype/StillImage" />
      </cc:Work>
    </rdf:RDF>
  </metadata>
  <defs
     id="defs26" />
  <rect
     id="rect2"
     fill-opacity="0"
     fill="rgb(0,0,0)"
     height="500"
     width="500"
     y="-250"
     x="-250" />
  <svg
     id="svg20"
     version="1.1"
     y="-250"
     x="-250"
     viewBox="-250 -250 500 500"
     height="500"
     width="500"
     style="overflow:visible">
    <g
       style="fill:#ffffff;stroke-linejoin:round"
       id="g18">
      <path
         style="fill:#505050;fill-opacity:1;stroke:none;stroke-linecap:butt;stroke-linejoin:round"
         id="path4"
         d="m 109.269,-65.832 -32.544,4.81188 c 5.26935,51.2915 29.0017,91.5668 70.318,122.368 l 13.961,-5.1165 8.83894,-16.6537 c -7.51787,-43.4148 -21.542,-82.5794 -60.5743,-105.413 z" />
      <path
         style="fill:#505050;fill-opacity:1;stroke:none;stroke-linecap:butt;stroke-linejoin:round"
         id="path6"
         d="m -127.778,-68.574001 -4.83056,1.41239 c 8.19046,50.8944 22.9144,98.0006 71.9563,125.216 l 11.2025,-6.20111 10.8693,-16.8356 c -0.66082,-42.1092 -21.1762,-74.2443 -56.7745,-98.803 l -32.4217,-4.79333 z" />
      <path
         style="fill:#404040;fill-opacity:1;stroke:none;stroke-linecap:butt;stroke-linejoin:round"
         id="path8"
         d="m 127.781,-68.574001 -18.5065,2.73709 c 5.2e-4,0.001 -5.2e-4,0.004 0,0.005 l 60.5743,105.411 10.1505,-19.1209 10.286,-70.7467 -62.5031,-18.2855 z" />
      <path
         style="fill:#404040;fill-opacity:1;stroke:none;stroke-linecap:butt;stroke-linejoin:round"
         id="path10"
         d="m 76.728,-61.023 -67.2332,9.93985 20.9669,73.5306 18.9887,29.4139 19.3815,10.7314 25.7146,5.96348 h 32.8333 l 19.665,-7.20737 -70.318,-122.368 c -8e-5,-10e-4 1e-4,-0.004 0,-0.005 z" />
      <path
         style="fill:#404040;fill-opacity:1;stroke:none;stroke-linecap:butt;stroke-linejoin:round"
         id="path12"
         d="m -132.612,-67.156 -57.6683,16.8699 10.286,70.7467 18.9887,35.771 33.626,12.3242 h 32.833399 l 25.7146,-5.96348 8.18187,-4.53031 -0.007,-0.005 -71.956399,-125.215 z" />
      <path
         style="fill:#404040;fill-opacity:1;stroke:none;stroke-linecap:butt;stroke-linejoin:round"
         id="path14"
         d="m -95.354001,-63.776001 56.7698,98.7982 0.005,0.007 8.11989,-12.5795 20.9669,-73.5306 -85.862,-12.6953 z" />
      <path
         style="fill:#000000;fill-opacity:1;stroke:#000000;stroke-width:4;stroke-linecap:butt;stroke-linejoin:round;stroke-opacity:1"
         id="path16"
         d="m -118.887,-74.139001 c -53.585,0 -68.9714,13.5862 -97.5898,14.9687 -5.12975,8.04584 -6.74566,16.5958 -4.64686,25.6788 38.9912,5.99539 23.4072,76.2566 63.5098,98.0479 24.5492,13.3392 75.7338,12.8063 102.238,-1.94316 42.4923,-23.6464 31.0704,-89.441 55.3761,-88.7108 24.3057,-0.72965 12.8838,65.0644 55.3761,88.7108 26.5038,14.7489 77.6884,15.283 102.238,1.94316 40.1026,-21.7913 24.5186,-92.0536 63.5098,-98.0479 2.0988,-9.08341 0.48289,-17.6332 -4.64686,-25.6788 -28.6183,-1.38284 -44.0048,-14.9687 -97.5898,-14.9687 -44.2447,0 -75.0552,13.4137 -118.888,13.4137 -43.8307,0 -74.6412,-13.4137 -118.888,-13.4137 z m 3.19972,14.1676 c 32.769799,-0.0331 69.6924,8.96513 85.481,21.4238 14.9513,11.7982 -7.7459,76.2601 -27.8833,89.4883 -23.473,15.42 -76.784,20.8708 -100.182,-2.71629 -17.8244,-17.97 -25.5065,-71.581 -14.4456,-89.1078 8.56621,-13.5732 31.542,-19.0618 57.0297,-19.0878 z m 231.367,0 c 25.4876,0.026 48.4632,5.51459 57.0297,19.0878 11.061,17.5269 3.37918,71.1378 -14.4456,89.1078 -23.3966,23.5874 -76.7076,18.1366 -100.182,2.71629 -20.1377,-13.2293 -42.8346,-77.6911 -27.8833,-89.4883 15.7875,-12.4589 52.7112,-21.4569 85.481,-21.4238 z" />
    </g>
  </svg>
</svg>
